<svg width="15" height="29" viewBox="0 0 15 29" fill="none" xmlns="http://www.w3.org/2000/svg">
<path d="M12.2897 28.3885C11.991 28.3895 11.6958 28.3236 11.4258 28.1956C11.1559 28.0675 10.9181 27.8806 10.7299 27.6486L1.0709 15.6497C0.776762 15.2919 0.615967 14.8431 0.615967 14.3799C0.615967 13.9166 0.776762 13.4678 1.0709 13.11L11.0698 1.11111C11.4093 0.702714 11.8971 0.445889 12.4259 0.397134C12.9547 0.348379 13.4812 0.511688 13.8896 0.851133C14.2979 1.19058 14.5548 1.67835 14.6035 2.20716C14.6523 2.73596 14.489 3.26247 14.1495 3.67087L5.21046 14.3899L13.8496 25.1088C14.0941 25.4024 14.2494 25.7598 14.2972 26.1389C14.3449 26.518 14.2831 26.9028 14.119 27.2478C13.9549 27.5928 13.6954 27.8836 13.3712 28.0858C13.0471 28.2879 12.6717 28.393 12.2897 28.3885Z" fill="#3C3C3C"/>
</svg>
