<svg width="29" height="30" viewBox="0 0 29 30" fill="none" xmlns="http://www.w3.org/2000/svg">
<path fill-rule="evenodd" clip-rule="evenodd" d="M28.417 5.625C28.417 4.58947 27.5776 3.75 26.542 3.75H21.822C21.0322 1.5092 18.9179 0.00761719 16.542 0H12.792C10.4161 0.00761719 8.30186 1.5092 7.51201 3.75H2.79199C1.75646 3.75 0.916992 4.58947 0.916992 5.625C0.916992 6.66053 1.75646 7.5 2.79199 7.5H3.41701V23.125C3.41701 26.922 6.49506 30 10.292 30H19.042C22.839 30 25.917 26.922 25.917 23.125V7.5H26.542C27.5776 7.5 28.417 6.66053 28.417 5.625ZM22.167 23.125C22.167 24.8509 20.7679 26.25 19.042 26.25H10.292C8.56611 26.25 7.16701 24.8509 7.16701 23.125V7.5H22.167V23.125ZM11.542 22.5C12.5776 22.5 13.417 21.6605 13.417 20.625V13.125C13.417 12.0895 12.5776 11.25 11.542 11.25C10.5065 11.25 9.66703 12.0895 9.66703 13.125V20.625C9.66703 21.6605 10.5065 22.5 11.542 22.5ZM19.667 20.625C19.667 21.6605 18.8275 22.5 17.792 22.5C16.7565 22.5 15.917 21.6605 15.917 20.625V13.125C15.917 12.0895 16.7565 11.25 17.792 11.25C18.8275 11.25 19.667 12.0895 19.667 13.125V20.625Z" fill="black"/>
</svg>
