<svg width="32" height="32" viewBox="0 0 32 32" fill="none" xmlns="http://www.w3.org/2000/svg">
<path fill-rule="evenodd" clip-rule="evenodd" d="M4.54482 28H10.6661C11.7707 28 12.6661 28.8954 12.6661 30C12.6661 31.1046 11.7707 32 10.6661 32H4.54482C2.0357 31.9971 0.00244903 29.9637 -0.000488281 27.4546V4.54532C0.00244903 2.03625 2.0357 0.00292969 4.54482 0H10.6661C11.7707 0 12.6661 0.895447 12.6661 2C12.6661 3.10455 11.7707 4 10.6661 4H4.54482C4.24395 4.0007 4.00026 4.24445 3.99951 4.54532V27.4547C4.0002 27.7556 4.24395 27.9992 4.54482 28ZM25.0661 6.58533L30.2421 11.7573L30.2381 11.7574C32.5813 14.1006 32.5813 17.8996 30.2381 20.2427L25.0661 25.4147C24.2984 26.1308 23.1077 26.1313 22.3392 25.416C21.5308 24.6634 21.4855 23.3979 22.2381 22.5894L26.8608 17.9667L8.66613 18C7.56157 18 6.66613 17.1046 6.66613 16C6.66613 14.8954 7.56157 14 8.66613 14L26.7874 13.9627L22.2381 9.4147C21.4568 8.63376 21.4565 7.36731 22.2374 6.586C23.0184 5.80469 24.2848 5.80438 25.0661 6.58533Z" fill="black"/>
</svg>
